<svg xmlns="http://www.w3.org/2000/svg" height="1200" width="824" version="1.1" xmlns:xlink="http://www.w3.org/1999/xlink">

<g transform="scale(3.25) translate(5 20)">
	<use xlink:href="weather-script-icons.svg#blizzard"/>
</g>

<g transform="scale(1.2) translate(34 400)">
	<use xlink:href="weather-script-icons.svg#hi_shwrs"/>
</g>
<g transform="scale(1.2) translate(200 400)">
	<use xlink:href="weather-script-icons.svg#wind"/>
</g>
<g transform="scale(1.2) translate(366 400)">
	<use xlink:href="weather-script-icons.svg#scttsra"/>
</g>

<g font-family="DejaVu Sans">
	<text style="text-anchor:begin;"  font-size="35px"  x="25"        y="52.256058" >Today:</text>
	<text style="text-anchor:middle;" font-size="35px"  x="445"       y="121.70689" >High:</text>
	<text style="text-anchor:end;"    font-size="100px" x="526.72095" y="209.20592" >11</text>
	<text style="text-anchor:middle;" font-size="64px"  x="548.30981" y="182.48717" >°F</text>
	<text style="text-anchor:middle;" font-size="35px"  x="440.80057" y="275.13895" >Low:</text>
	<text style="text-anchor:end;"    font-size="100px" x="526.23267" y="359.8533"  >10</text>
	<text style="text-anchor:middle;" font-size="64px"  x="548.30981" y="333.13455" >°F</text>

	<text style="text-anchor:middle;" font-size="32px"  x="102.92969" y="465.16922" >Tomorrow:</text>
	<text style="text-anchor:middle;" font-size="20px"  x="74.958336" y="635.68347" >High:</text>
	<text style="text-anchor:end;"    font-size="58px"  x="116.05887" y="686.3255"  >21</text>
	<text style="text-anchor:middle;" font-size="37px"  x="134.01662" y="670.86145" >°F</text>
	<text style="text-anchor:middle;" font-size="20px"  x="71.906197" y="724.48578" >Low:</text>
	<text style="text-anchor:end;"    font-size="58px"  x="116.00232" y="773.51617" >20</text>
	<text style="text-anchor:middle;" font-size="37px"  x="134.01663" y="758.05206" >°F</text>

	<text style="text-anchor:middle;" font-size="32px"  x="300.3125"  y="466.15359" >Wednesday:</text>
	<text style="text-anchor:middle;" font-size="20px"  x="273.95834" y="635.68347" >High:</text>
	<text style="text-anchor:end;"    font-size="58px"  x="314.15454" y="686.3255"  >31</text>
	<text style="text-anchor:middle;" font-size="37px"  x="333.01663" y="670.86145" >°F</text>
	<text style="text-anchor:middle;" font-size="20px"  x="270.90619" y="724.48578" >Low:</text>
	<text style="text-anchor:end;"    font-size="58px"  x="314.08383" y="773.51617" >30</text>
	<text style="text-anchor:middle;" font-size="37px"  x="333.0166"  y="758.05206" >°F</text>

	<text style="text-anchor:middle;" font-size="32px"  x="499.82813" y="466.15359" >Thursday:</text>
	<text style="text-anchor:middle;" font-size="20px"  x="472.95834" y="635.68347" >High:</text>
	<text style="text-anchor:end;"    font-size="58px"  x="513.30994" y="686.3255"  >41</text>
	<text style="text-anchor:middle;" font-size="37px"  x="532.0166"  y="670.86145" >°F</text>
	<text style="text-anchor:middle;" font-size="20px"  x="469.90619" y="724.48578" >Low:</text>
	<text style="text-anchor:end;"    font-size="58px"  x="513.73383" y="773.51617" >40</text>
	<text style="text-anchor:middle;" font-size="37px"  x="532.0166"  y="758.05206" >°F</text>
</g>

<path d="m199,447.35,0,321.5,3,0,0-321.5-3,0z"/>
<path d="m398,447.35,0,321.5,3,0,0-321.5-3,0z"/>

</svg>
