<svg height="1200" width="824" version="1.1"
	xmlns="http://www.w3.org/2000/svg" xmlns:xlink="http://www.w3.org/1999/xlink">

<g font-family="DejaVu Sans" transform="translate(200 212)">
	<g transform="translate(16.25 65)">
		<use transform="scale(3.25)" xlink:href="weather-script-icons.svg#blizzard"/>
	</g>
	<g transform="translate(25 0)">
		<text style="text-anchor:begin;"  font-size="35px"  x="0"         y="52.256058" >Today:</text>
		<text style="text-anchor:middle;" font-size="35px"  x="420"       y="121.70689" >High:</text>
		<text style="text-anchor:end;"    font-size="100px" x="501.72095" y="209.20592" >11</text>
		<text style="text-anchor:middle;" font-size="64px"  x="523.30981" y="182.48717" >°F</text>
		<text style="text-anchor:middle;" font-size="35px"  x="415.80057" y="275.13895" >Low:</text>
		<text style="text-anchor:end;"    font-size="100px" x="501.23267" y="359.8533"  >10</text>
		<text style="text-anchor:middle;" font-size="64px"  x="523.30981" y="333.13455" >°F</text>
	</g>

	<g transform="translate(40 480)">
		<use transform="scale(1.2)" xlink:href="weather-script-icons.svg#hi_shwrs"/>
		<text style="text-anchor:middle;" font-size="32px"  x="63" y="-14  " >Tomorrow:</text>
		<text style="text-anchor:middle;" font-size="20px"  x="35" y="156  " >High:</text>
		<text style="text-anchor:end;"    font-size="58px"  x="76" y="206  " >21</text>
		<text style="text-anchor:middle;" font-size="37px"  x="94" y="191  " >°F</text>
		<text style="text-anchor:middle;" font-size="20px"  x="32" y="244.5" >Low:</text>
		<text style="text-anchor:end;"    font-size="58px"  x="76" y="293.5" >20</text>
		<text style="text-anchor:middle;" font-size="37px"  x="94" y="278  " >°F</text>
	</g>

	<g transform="translate(240 480)">
		<use transform="scale(1.2)" xlink:href="weather-script-icons.svg#wind"/>
		<text style="text-anchor:middle;" font-size="32px"  x="63" y="-14  " >Wednesday:</text>
		<text style="text-anchor:middle;" font-size="20px"  x="35" y="156  " >High:</text>
		<text style="text-anchor:end;"    font-size="58px"  x="76" y="206  " >31</text>
		<text style="text-anchor:middle;" font-size="37px"  x="94" y="191  " >°F</text>
		<text style="text-anchor:middle;" font-size="20px"  x="32" y="244.5" >Low:</text>
		<text style="text-anchor:end;"    font-size="58px"  x="76" y="293.5" >30</text>
		<text style="text-anchor:middle;" font-size="37px"  x="94" y="278  " >°F</text>
	</g>

	<g transform="translate(440 480)">
		<use transform="scale(1.2)" xlink:href="weather-script-icons.svg#scttsra"/>
		<text style="text-anchor:middle;" font-size="32px"  x="63" y="-14  " >Thursday:</text>
		<text style="text-anchor:middle;" font-size="20px"  x="35" y="156  " >High:</text>
		<text style="text-anchor:end;"    font-size="58px"  x="76" y="206  " >41</text>
		<text style="text-anchor:middle;" font-size="37px"  x="94" y="191  " >°F</text>
		<text style="text-anchor:middle;" font-size="20px"  x="32" y="244.5" >Low:</text>
		<text style="text-anchor:end;"    font-size="58px"  x="76" y="293.5" >40</text>
		<text style="text-anchor:middle;" font-size="37px"  x="94" y="278  " >°F</text>
	</g>
  <g transform="translate(200 450)">
	  <path d="m0,321,3,0,0,-321,-3,0z"/>
  </g>
  <g transform="translate(400 450)">
	  <path d="m0,321,3,0,0,-321,-3,0z"/>
  </g>
</g>

</svg>
